<?xml version="1.0" standalone="no"?>
<!DOCTYPE svg PUBLIC "-//W3C//DTD SVG 20010904//EN"
 "http://www.w3.org/TR/2001/REC-SVG-20010904/DTD/svg10.dtd">
<svg version="1.0" xmlns="http://www.w3.org/2000/svg"
 width="263.000000pt" height="233.000000pt" viewBox="0 0 263.000000 233.000000"
 preserveAspectRatio="xMidYMid meet">

<g transform="translate(0.000000,233.000000) scale(0.100000,-0.100000)"
fill="#000000" stroke="none">
<path d="M0 1165 l0 -1165 1315 0 1315 0 0 1165 0 1165 -1315 0 -1315 0 0
-1165z m1529 932 c69 -41 152 -88 184 -106 31 -18 63 -42 70 -54 6 -12 14 -58
17 -102 l5 -80 69 -8 c87 -9 144 -38 202 -99 57 -61 85 -124 92 -204 5 -64
-14 -143 -47 -193 -9 -14 -11 -26 -6 -28 38 -13 137 -87 145 -109 6 -14 10
-122 10 -239 l0 -215 -27 -29 c-36 -38 -347 -219 -390 -227 -31 -6 -74 10
-156 60 -16 9 -21 7 -35 -14 -9 -14 -41 -50 -71 -80 -65 -65 -129 -90 -226
-90 -111 0 -214 54 -268 141 -16 27 -34 49 -39 49 -6 0 -38 -16 -72 -35 -35
-19 -74 -35 -87 -35 -30 0 -387 203 -411 233 -15 19 -18 49 -18 248 0 260 -2
253 95 309 30 17 55 34 55 38 0 3 -9 24 -20 47 -103 212 32 450 267 473 l68 7
1 78 c0 60 5 83 20 104 30 40 371 233 413 233 25 0 70 -21 160 -73z"/>
<path d="M1180 1261 c-16 -31 -13 -35 48 -68 90 -50 96 -60 102 -166 l5 -92
35 0 35 0 5 90 c4 50 9 97 13 106 4 8 33 30 65 49 84 50 82 48 70 76 -15 32
-30 30 -92 -7 -77 -48 -111 -49 -185 -5 -71 41 -86 44 -101 17z"/>
</g>
</svg>
